<svg width="166" height="32" viewBox="0 0 166 32" fill="none" xmlns="http://www.w3.org/2000/svg">
<path d="M161 0H31V32H161C163.761 32 166 29.7614 166 27V5C166 2.23858 163.761 0 161 0Z" fill="#0F1418"/>
<path d="M31 0H5C2.23858 0 0 2.23858 0 5V27C0 29.7614 2.23858 32 5 32H31V0Z" fill="#247CE6"/>
<path d="M17.6478 19.7178C17.6478 20.2032 17.2543 20.5967 16.7689 20.5967H15.2311C14.7457 20.5967 14.3522 20.2032 14.3522 19.7178V18.7289L7 15.8984V15.8988V24.6485C7 24.8426 7.15739 25 7.35156 25H24.6484C24.8426 25 25 24.8426 25 24.6485V15.8988V15.8984L17.6478 18.7289V19.7178Z" fill="white"/>
<path d="M20.2363 10.4397V8.23047C20.2363 7.5509 19.6854 7 19.0059 7H12.9941C12.3146 7 11.7637 7.5509 11.7637 8.23047V10.4397H7.35156C7.15739 10.4397 7 10.5971 7 10.7912V14.7685L14.3522 17.5986V17.4375C14.3522 16.9521 14.7457 16.5586 15.2311 16.5586H16.7689C17.2543 16.5586 17.6478 16.9521 17.6478 17.4375V17.5986L25 14.7685V10.7912C25 10.5971 24.8426 10.4397 24.6484 10.4397H20.2363ZM12.8184 10.4397V8.23047C12.8184 8.13354 12.8972 8.05469 12.9941 8.05469H19.0059C19.1028 8.05469 19.1816 8.13354 19.1816 8.23047V10.4397H12.8184Z" fill="white"/>
<path d="M15.4069 17.6133V19.542H16.5931C16.5931 19.1374 16.5931 18.0181 16.5931 17.6133H15.4069Z" fill="white"/>
<path d="M56.2475 13.1704L55.9618 14.4888H54.6068L54.204 16.3052H55.7201L55.3905 17.6235H53.933L53.3617 20.1577H51.8969L52.4315 17.6235H50.7543L50.2123 20.1577H48.7475L49.2675 17.6235H47.9052L48.1762 16.3052H49.5531L49.9413 14.4888H48.4618L48.7108 13.1704H50.2123L50.7543 10.563H52.2558L51.7138 13.1704H53.391L53.9477 10.563H55.4345L54.8925 13.1704H56.2475ZM53.1273 14.4888H51.4281L51.0253 16.3052H52.7172L53.1273 14.4888ZM62.3454 21.1831C60.8415 21.1831 59.6159 20.6948 58.6687 19.7183C57.7214 18.7368 57.2478 17.46 57.2478 15.8877C57.2478 14.2275 57.7287 12.8848 58.6906 11.8594C59.6526 10.834 60.927 10.3213 62.5139 10.3213C64.0129 10.3213 65.2238 10.812 66.1467 11.7935C67.0744 12.7749 67.5383 14.0688 67.5383 15.6753C67.5383 17.3257 67.0573 18.6562 66.0954 19.667C65.1384 20.6777 63.8884 21.1831 62.3454 21.1831ZM62.448 12.3574C61.6179 12.3574 60.9587 12.6699 60.4704 13.2949C59.9821 13.915 59.738 14.7378 59.738 15.7632C59.738 16.8032 59.9821 17.626 60.4704 18.2314C60.9587 18.8369 61.5984 19.1396 62.3894 19.1396C63.2048 19.1396 63.8518 18.8467 64.3303 18.2607C64.8088 17.6699 65.0481 16.8521 65.0481 15.8071C65.0481 14.7183 64.8161 13.8711 64.3523 13.2656C63.8884 12.6602 63.2536 12.3574 62.448 12.3574ZM71.5855 20.1284H71.5562V24.4497H69.2417V13.5H71.5562V14.6279H71.5855C72.1568 13.7539 72.96 13.3169 73.9952 13.3169C74.9668 13.3169 75.7163 13.6514 76.2437 14.3203C76.7759 14.9844 77.042 15.8901 77.042 17.0376C77.042 18.2876 76.732 19.291 76.1119 20.0479C75.4966 20.8047 74.6763 21.1831 73.6509 21.1831C72.7476 21.1831 72.0591 20.8315 71.5855 20.1284ZM71.5196 17.0522V17.6528C71.5196 18.1704 71.6563 18.5928 71.9297 18.9199C72.2032 19.2471 72.562 19.4106 73.0064 19.4106C73.5337 19.4106 73.9414 19.208 74.2295 18.8027C74.5225 18.3926 74.669 17.814 74.669 17.0669C74.669 15.7485 74.1563 15.0894 73.1309 15.0894C72.6573 15.0894 72.2691 15.27 71.9663 15.6313C71.6685 15.9878 71.5196 16.4614 71.5196 17.0522ZM85.4618 17.9092H80.5692C80.6473 18.998 81.3334 19.5425 82.6273 19.5425C83.4525 19.5425 84.1776 19.3472 84.8026 18.9565V20.6265C84.1092 20.9976 83.2084 21.1831 82.1 21.1831C80.889 21.1831 79.9491 20.8486 79.2801 20.1797C78.6112 19.5059 78.2767 18.5684 78.2767 17.3672C78.2767 16.1221 78.638 15.1357 79.3607 14.4082C80.0834 13.6807 80.972 13.3169 82.0267 13.3169C83.1205 13.3169 83.9652 13.6416 84.5609 14.291C85.1615 14.9404 85.4618 15.8218 85.4618 16.9351V17.9092ZM83.3158 16.4883C83.3158 15.4141 82.8812 14.877 82.0121 14.877C81.641 14.877 81.3187 15.0308 81.0453 15.3384C80.7767 15.646 80.6131 16.0293 80.5546 16.4883H83.3158ZM94.2624 21H91.9553V16.8325C91.9553 15.6704 91.5402 15.0894 90.7101 15.0894C90.3097 15.0894 89.9802 15.2432 89.7214 15.5508C89.4626 15.8584 89.3332 16.249 89.3332 16.7227V21H87.0187V13.5H89.3332V14.6865H89.3625C89.9142 13.7734 90.7175 13.3169 91.7721 13.3169C93.4323 13.3169 94.2624 14.3472 94.2624 16.4077V21ZM100.814 20.9121C100.473 21.0928 99.9575 21.1831 99.269 21.1831C97.6382 21.1831 96.8228 20.3359 96.8228 18.6416V15.2065H95.6069V13.5H96.8228V11.8813L99.1299 11.2222V13.5H100.814V15.2065H99.1299V18.2388C99.1299 19.02 99.4399 19.4106 100.06 19.4106C100.304 19.4106 100.556 19.3398 100.814 19.1982V20.9121ZM105.821 21.1831C104.571 21.1831 103.587 20.834 102.869 20.1357C102.157 19.4326 101.8 18.4805 101.8 17.2793C101.8 16.0391 102.171 15.0698 102.913 14.3716C103.656 13.6685 104.659 13.3169 105.924 13.3169C107.169 13.3169 108.145 13.6685 108.853 14.3716C109.561 15.0698 109.915 15.9951 109.915 17.1475C109.915 18.3926 109.549 19.3765 108.817 20.0991C108.089 20.8218 107.091 21.1831 105.821 21.1831ZM105.88 15.0894C105.333 15.0894 104.908 15.2773 104.605 15.6533C104.303 16.0293 104.151 16.5615 104.151 17.25C104.151 18.6904 104.732 19.4106 105.894 19.4106C107.003 19.4106 107.557 18.6709 107.557 17.1914C107.557 15.79 106.998 15.0894 105.88 15.0894ZM125.564 10.4971L122.788 21H120.166L118.423 14.2617C118.33 13.9102 118.274 13.5171 118.255 13.0825H118.225C118.181 13.561 118.118 13.9541 118.035 14.2617L116.248 21H113.516L110.755 10.4971H113.34L114.819 17.4917C114.883 17.7896 114.929 18.1899 114.959 18.6929H115.003C115.022 18.3169 115.093 17.9067 115.215 17.4624L117.119 10.4971H119.653L121.375 17.5503C121.438 17.8091 121.494 18.1851 121.543 18.6782H121.572C121.592 18.2925 121.643 17.9019 121.726 17.5063L123.176 10.4971H125.564ZM130.014 21.1831C128.764 21.1831 127.78 20.834 127.062 20.1357C126.35 19.4326 125.993 18.4805 125.993 17.2793C125.993 16.0391 126.364 15.0698 127.106 14.3716C127.849 13.6685 128.852 13.3169 130.117 13.3169C131.362 13.3169 132.338 13.6685 133.046 14.3716C133.754 15.0698 134.108 15.9951 134.108 17.1475C134.108 18.3926 133.742 19.3765 133.01 20.0991C132.282 20.8218 131.284 21.1831 130.014 21.1831ZM130.073 15.0894C129.526 15.0894 129.101 15.2773 128.798 15.6533C128.496 16.0293 128.344 16.5615 128.344 17.25C128.344 18.6904 128.925 19.4106 130.087 19.4106C131.196 19.4106 131.75 18.6709 131.75 17.1914C131.75 15.79 131.191 15.0894 130.073 15.0894ZM140.682 15.5874C140.404 15.436 140.079 15.3604 139.708 15.3604C139.205 15.3604 138.812 15.5459 138.529 15.917C138.246 16.2832 138.104 16.7837 138.104 17.4185V21H135.79V13.5H138.104V14.8916H138.134C138.5 13.876 139.159 13.3682 140.111 13.3682C140.355 13.3682 140.546 13.3975 140.682 13.4561V15.5874ZM149.461 21H146.685L144.29 17.2793H144.261V21H141.946V9.89648H144.261V16.9644H144.29L146.524 13.5H149.271L146.583 17.0229L149.461 21Z" fill="white"/>
<path d="M161 0H5C2.23858 0 0 2.23858 0 5V27C0 29.7614 2.23858 32 5 32H161C163.761 32 166 29.7614 166 27V5C166 2.23858 163.761 0 161 0Z" fill="url(#paint0_linear)"/>
<defs>
<linearGradient id="paint0_linear" x1="0" y1="0" x2="0" y2="32" gradientUnits="userSpaceOnUse">
<stop stop-color="#BBBBBB" stop-opacity="0.1"/>
<stop offset="1" stop-opacity="0.1"/>
</linearGradient>
</defs>
</svg>
