<svg width="512" height="512" viewBox="0 0 512 512" fill="none" xmlns="http://www.w3.org/2000/svg">
<path d="M401 241H271V273H401C403.761 273 406 270.761 406 268V246C406 243.239 403.761 241 401 241Z" fill="#0F1418"/>
<path d="M271 241H245C242.239 241 240 243.239 240 246V268C240 270.761 242.239 273 245 273H271V241Z" fill="#247CE6"/>
<path d="M257.648 259.718C257.648 260.203 257.254 260.597 256.769 260.597H255.231C254.746 260.597 254.352 260.203 254.352 259.718V258.729L247 255.898V255.899V264.648C247 264.843 247.157 265 247.352 265H264.648C264.843 265 265 264.843 265 264.648V255.899V255.898L257.648 258.729V259.718Z" fill="white"/>
<path d="M260.236 250.44V248.23C260.236 247.551 259.685 247 259.006 247H252.994C252.315 247 251.764 247.551 251.764 248.23V250.44H247.352C247.157 250.44 247 250.597 247 250.791V254.768L254.352 257.599V257.438C254.352 256.952 254.746 256.559 255.231 256.559H256.769C257.254 256.559 257.648 256.952 257.648 257.438V257.599L265 254.768V250.791C265 250.597 264.843 250.44 264.648 250.44H260.236ZM252.818 250.44V248.23C252.818 248.134 252.897 248.055 252.994 248.055H259.006C259.103 248.055 259.182 248.134 259.182 248.23V250.44H252.818Z" fill="white"/>
<path d="M255.407 257.613V259.542H256.593C256.593 259.137 256.593 258.018 256.593 257.613H255.407Z" fill="white"/>
<path d="M296.247 255.17L295.962 256.489H294.607L294.204 258.305H295.72L295.391 259.624H293.933L293.362 262.158H291.897L292.432 259.624H290.754L290.212 262.158H288.747L289.267 259.624H287.905L288.176 258.305H289.553L289.941 256.489H288.462L288.711 255.17H290.212L290.754 252.563H292.256L291.714 255.17H293.391L293.948 252.563H295.434L294.892 255.17H296.247ZM293.127 256.489H291.428L291.025 258.305H292.717L293.127 256.489ZM302.345 263.183C300.842 263.183 299.616 262.695 298.669 261.718C297.721 260.737 297.248 259.46 297.248 257.888C297.248 256.228 297.729 254.885 298.691 253.859C299.653 252.834 300.927 252.321 302.514 252.321C304.013 252.321 305.224 252.812 306.147 253.793C307.074 254.775 307.538 256.069 307.538 257.675C307.538 259.326 307.057 260.656 306.095 261.667C305.138 262.678 303.888 263.183 302.345 263.183ZM302.448 254.357C301.618 254.357 300.959 254.67 300.47 255.295C299.982 255.915 299.738 256.738 299.738 257.763C299.738 258.803 299.982 259.626 300.47 260.231C300.959 260.837 301.598 261.14 302.389 261.14C303.205 261.14 303.852 260.847 304.33 260.261C304.809 259.67 305.048 258.852 305.048 257.807C305.048 256.718 304.816 255.871 304.352 255.266C303.888 254.66 303.254 254.357 302.448 254.357ZM311.585 262.128H311.556V266.45H309.242V255.5H311.556V256.628H311.585C312.157 255.754 312.96 255.317 313.995 255.317C314.967 255.317 315.716 255.651 316.244 256.32C316.776 256.984 317.042 257.89 317.042 259.038C317.042 260.288 316.732 261.291 316.112 262.048C315.497 262.805 314.676 263.183 313.651 263.183C312.748 263.183 312.059 262.832 311.585 262.128ZM311.52 259.052V259.653C311.52 260.17 311.656 260.593 311.93 260.92C312.203 261.247 312.562 261.411 313.006 261.411C313.534 261.411 313.941 261.208 314.23 260.803C314.522 260.393 314.669 259.814 314.669 259.067C314.669 257.749 314.156 257.089 313.131 257.089C312.657 257.089 312.269 257.27 311.966 257.631C311.668 257.988 311.52 258.461 311.52 259.052ZM325.462 259.909H320.569C320.647 260.998 321.333 261.542 322.627 261.542C323.452 261.542 324.178 261.347 324.803 260.957V262.626C324.109 262.998 323.208 263.183 322.1 263.183C320.889 263.183 319.949 262.849 319.28 262.18C318.611 261.506 318.277 260.568 318.277 259.367C318.277 258.122 318.638 257.136 319.361 256.408C320.083 255.681 320.972 255.317 322.027 255.317C323.12 255.317 323.965 255.642 324.561 256.291C325.161 256.94 325.462 257.822 325.462 258.935V259.909ZM323.316 258.488C323.316 257.414 322.881 256.877 322.012 256.877C321.641 256.877 321.319 257.031 321.045 257.338C320.777 257.646 320.613 258.029 320.555 258.488H323.316ZM334.262 263H331.955V258.833C331.955 257.67 331.54 257.089 330.71 257.089C330.31 257.089 329.98 257.243 329.721 257.551C329.463 257.858 329.333 258.249 329.333 258.723V263H327.019V255.5H329.333V256.687H329.362C329.914 255.773 330.717 255.317 331.772 255.317C333.432 255.317 334.262 256.347 334.262 258.408V263ZM340.814 262.912C340.473 263.093 339.958 263.183 339.269 263.183C337.638 263.183 336.823 262.336 336.823 260.642V257.207H335.607V255.5H336.823V253.881L339.13 253.222V255.5H340.814V257.207H339.13V260.239C339.13 261.02 339.44 261.411 340.06 261.411C340.304 261.411 340.556 261.34 340.814 261.198V262.912ZM345.821 263.183C344.571 263.183 343.587 262.834 342.869 262.136C342.157 261.433 341.8 260.48 341.8 259.279C341.8 258.039 342.171 257.07 342.913 256.372C343.656 255.668 344.659 255.317 345.924 255.317C347.169 255.317 348.145 255.668 348.853 256.372C349.561 257.07 349.915 257.995 349.915 259.147C349.915 260.393 349.549 261.376 348.817 262.099C348.089 262.822 347.091 263.183 345.821 263.183ZM345.88 257.089C345.333 257.089 344.908 257.277 344.605 257.653C344.303 258.029 344.151 258.562 344.151 259.25C344.151 260.69 344.732 261.411 345.894 261.411C347.003 261.411 347.557 260.671 347.557 259.191C347.557 257.79 346.998 257.089 345.88 257.089ZM365.564 252.497L362.788 263H360.166L358.423 256.262C358.33 255.91 358.274 255.517 358.255 255.083H358.225C358.181 255.561 358.118 255.954 358.035 256.262L356.248 263H353.516L350.755 252.497H353.34L354.819 259.492C354.883 259.79 354.929 260.19 354.959 260.693H355.003C355.022 260.317 355.093 259.907 355.215 259.462L357.119 252.497H359.653L361.375 259.55C361.438 259.809 361.494 260.185 361.543 260.678H361.572C361.592 260.292 361.643 259.902 361.726 259.506L363.176 252.497H365.564ZM370.014 263.183C368.764 263.183 367.78 262.834 367.062 262.136C366.35 261.433 365.993 260.48 365.993 259.279C365.993 258.039 366.364 257.07 367.106 256.372C367.849 255.668 368.852 255.317 370.117 255.317C371.362 255.317 372.338 255.668 373.046 256.372C373.754 257.07 374.108 257.995 374.108 259.147C374.108 260.393 373.742 261.376 373.01 262.099C372.282 262.822 371.284 263.183 370.014 263.183ZM370.073 257.089C369.526 257.089 369.101 257.277 368.798 257.653C368.496 258.029 368.344 258.562 368.344 259.25C368.344 260.69 368.925 261.411 370.087 261.411C371.196 261.411 371.75 260.671 371.75 259.191C371.75 257.79 371.191 257.089 370.073 257.089ZM380.682 257.587C380.404 257.436 380.079 257.36 379.708 257.36C379.205 257.36 378.812 257.546 378.529 257.917C378.246 258.283 378.104 258.784 378.104 259.418V263H375.79V255.5H378.104V256.892H378.134C378.5 255.876 379.159 255.368 380.111 255.368C380.355 255.368 380.546 255.397 380.682 255.456V257.587ZM389.461 263H386.685L384.29 259.279H384.261V263H381.946V251.896H384.261V258.964H384.29L386.524 255.5H389.271L386.583 259.023L389.461 263Z" fill="white"/>
<path d="M401 241H245C242.239 241 240 243.239 240 246V268C240 270.761 242.239 273 245 273H401C403.761 273 406 270.761 406 268V246C406 243.239 403.761 241 401 241Z" fill="url(#paint0_linear)"/>
<defs>
<linearGradient id="paint0_linear" x1="240" y1="241" x2="240" y2="273" gradientUnits="userSpaceOnUse">
<stop stop-color="#BBBBBB" stop-opacity="0.1"/>
<stop offset="1" stop-opacity="0.1"/>
</linearGradient>
</defs>
</svg>
