<svg width="130" height="32" viewBox="0 0 130 32" fill="none" xmlns="http://www.w3.org/2000/svg">
<path d="M125 0H31V32H125C127.761 32 130 29.7614 130 27V5C130 2.23858 127.761 0 125 0Z" fill="#0F1418"/>
<path d="M31 0H5C2.23858 0 0 2.23858 0 5V27C0 29.7614 2.23858 32 5 32H31V0Z" fill="#3178C6"/>
<path fill-rule="evenodd" clip-rule="evenodd" d="M19.2076 25.6844V29.137C19.7815 29.4245 20.4601 29.6404 21.2436 29.7841C22.0271 29.9281 22.8529 30 23.721 30C24.567 30 25.3708 29.921 26.1321 29.7627C26.8937 29.6044 27.5611 29.3438 28.1351 28.9804C28.7088 28.6171 29.1631 28.1425 29.498 27.5562C29.8326 26.9701 30 26.2454 30 25.3823C30 24.7566 29.9043 24.2081 29.7131 23.737C29.5217 23.2659 29.246 22.8469 28.8854 22.4801C28.525 22.1133 28.0927 21.7842 27.5889 21.4929C27.0848 21.2016 26.5167 20.9265 25.8838 20.6676C25.4204 20.4806 25.0047 20.299 24.6369 20.1227C24.2691 19.9465 23.9564 19.7667 23.6989 19.5833C23.4414 19.3999 23.2428 19.2057 23.103 19.0007C22.9633 18.7957 22.8934 18.5637 22.8934 18.3048C22.8934 18.0674 22.9559 17.8534 23.081 17.6628C23.206 17.4722 23.3826 17.3086 23.6107 17.1719C23.8387 17.0353 24.1183 16.9292 24.4493 16.8537C24.7804 16.7781 25.1482 16.7404 25.5528 16.7404C25.8472 16.7404 26.1578 16.762 26.4854 16.8051C26.8126 16.8483 27.1419 16.9148 27.473 17.0047C27.804 17.0946 28.1258 17.2079 28.4386 17.3446C28.7513 17.4812 29.0399 17.6395 29.3048 17.8193V14.5934C28.7677 14.392 28.1811 14.2428 27.5447 14.1456C26.9083 14.0485 26.1783 14 25.3542 14C24.5155 14 23.721 14.0881 22.9706 14.2643C22.2202 14.4405 21.5599 14.7157 20.9898 15.0897C20.4196 15.4637 19.969 15.9402 19.638 16.5192C19.3069 17.0982 19.1414 17.7905 19.1414 18.5961C19.1414 19.6246 19.4449 20.5021 20.0518 21.2286C20.6588 21.9551 21.5802 22.57 22.8161 23.0735C23.3017 23.2677 23.7541 23.4583 24.1734 23.6453C24.5928 23.8323 24.9551 24.0265 25.2604 24.2279C25.5657 24.4293 25.8066 24.6487 25.9831 24.886C26.1598 25.1234 26.248 25.3931 26.248 25.6952C26.248 25.9183 26.1929 26.125 26.0826 26.3156C25.9722 26.5061 25.8048 26.6715 25.5804 26.8118C25.356 26.9521 25.0765 27.0619 24.7417 27.1409C24.407 27.2199 24.0153 27.2596 23.5665 27.2596C22.8014 27.2596 22.0437 27.1284 21.2933 26.8657C20.5429 26.6033 19.8477 26.2095 19.2076 25.6844V25.6844ZM13.2582 17.0903H17.8788V14.2462H5V17.0903H9.59795V29.7538H13.2582V17.0903Z" fill="white"/>
<path d="M50.9351 13.4233H47.9395V22H45.5665V13.4233H42.5855V11.4971H50.9351V13.4233ZM58.7689 14.5L55.722 22.6006C54.9896 24.5488 53.8861 25.5229 52.4115 25.5229C51.85 25.5229 51.3886 25.4595 51.0272 25.3325V23.4868C51.3348 23.6675 51.6693 23.7578 52.0306 23.7578C52.6263 23.7578 53.0414 23.4771 53.2758 22.9155L53.6713 21.9854L50.6244 14.5H53.1879L54.5868 19.063C54.6747 19.3462 54.743 19.6807 54.7919 20.0664H54.8212C54.8651 19.7832 54.9457 19.4536 55.0629 19.0776L56.4764 14.5H58.7689ZM62.2229 21.1284H62.1936V25.4497H59.8791V14.5H62.1936V15.6279H62.2229C62.7941 14.7539 63.5974 14.3169 64.6325 14.3169C65.6042 14.3169 66.3537 14.6514 66.8811 15.3203C67.4133 15.9844 67.6794 16.8901 67.6794 18.0376C67.6794 19.2876 67.3693 20.291 66.7492 21.0479C66.134 21.8047 65.3137 22.1831 64.2883 22.1831C63.385 22.1831 62.6965 21.8315 62.2229 21.1284ZM62.1569 18.0522V18.6528C62.1569 19.1704 62.2937 19.5928 62.5671 19.9199C62.8405 20.2471 63.1994 20.4106 63.6437 20.4106C64.1711 20.4106 64.5788 20.208 64.8669 19.8027C65.1599 19.3926 65.3063 18.814 65.3063 18.0669C65.3063 16.7485 64.7937 16.0894 63.7683 16.0894C63.2946 16.0894 62.9064 16.27 62.6037 16.6313C62.3059 16.9878 62.1569 17.4614 62.1569 18.0522ZM76.0991 18.9092H71.2066C71.2847 19.998 71.9707 20.5425 73.2647 20.5425C74.0899 20.5425 74.815 20.3472 75.44 19.9565V21.6265C74.7466 21.9976 73.8457 22.1831 72.7373 22.1831C71.5264 22.1831 70.5864 21.8486 69.9175 21.1797C69.2486 20.5059 68.9141 19.5684 68.9141 18.3672C68.9141 17.1221 69.2754 16.1357 69.9981 15.4082C70.7207 14.6807 71.6094 14.3169 72.6641 14.3169C73.7578 14.3169 74.6026 14.6416 75.1983 15.291C75.7988 15.9404 76.0991 16.8218 76.0991 17.9351V18.9092ZM73.9531 17.4883C73.9531 16.4141 73.5186 15.877 72.6494 15.877C72.2783 15.877 71.9561 16.0308 71.6826 16.3384C71.4141 16.646 71.2505 17.0293 71.1919 17.4883H73.9531ZM77.3997 21.5972V19.2534C77.8246 19.6099 78.286 19.8784 78.784 20.0591C79.2821 20.2349 79.785 20.3228 80.2928 20.3228C80.5907 20.3228 80.8495 20.2959 81.0692 20.2422C81.2938 20.1885 81.4793 20.1152 81.6258 20.0225C81.7772 19.9248 81.8895 19.8125 81.9627 19.6855C82.036 19.5537 82.0726 19.4121 82.0726 19.2607C82.0726 19.0557 82.014 18.8726 81.8968 18.7114C81.7796 18.5503 81.6185 18.4014 81.4134 18.2646C81.2132 18.1279 80.974 17.9961 80.6956 17.8691C80.4173 17.7422 80.117 17.6128 79.7948 17.481C78.9745 17.1392 78.3617 16.7217 77.9564 16.2285C77.556 15.7354 77.3558 15.1396 77.3558 14.4414C77.3558 13.8945 77.4657 13.4258 77.6854 13.0352C77.9051 12.6396 78.203 12.3149 78.5789 12.061C78.9598 11.8071 79.3993 11.6216 79.8973 11.5044C80.3954 11.3823 80.9227 11.3213 81.4793 11.3213C82.0262 11.3213 82.5096 11.3555 82.9295 11.4238C83.3543 11.4873 83.745 11.5874 84.1014 11.7241V13.9141C83.9256 13.792 83.7328 13.6846 83.5228 13.5918C83.3177 13.499 83.1053 13.4233 82.8856 13.3647C82.6659 13.3013 82.4461 13.2549 82.2264 13.2256C82.0116 13.1963 81.8065 13.1816 81.6112 13.1816C81.3426 13.1816 81.0985 13.2085 80.8787 13.2622C80.659 13.311 80.4735 13.3818 80.3221 13.4746C80.1707 13.5674 80.0536 13.6797 79.9705 13.8115C79.8875 13.9385 79.846 14.0825 79.846 14.2437C79.846 14.4194 79.8924 14.5781 79.9852 14.7197C80.078 14.8564 80.2098 14.9883 80.3807 15.1152C80.5516 15.2373 80.7591 15.3594 81.0033 15.4814C81.2474 15.5986 81.5233 15.7207 81.8309 15.8477C82.2508 16.0234 82.6268 16.2114 82.9588 16.4116C83.2957 16.6069 83.5838 16.8291 83.8231 17.0781C84.0623 17.3271 84.2454 17.6128 84.3724 17.9351C84.4994 18.2524 84.5628 18.6235 84.5628 19.0483C84.5628 19.6343 84.4505 20.1274 84.2259 20.5278C84.0062 20.9233 83.7059 21.2456 83.325 21.4946C82.9442 21.7388 82.4998 21.9146 81.992 22.022C81.4891 22.1294 80.9569 22.1831 80.3954 22.1831C79.8192 22.1831 79.2699 22.1343 78.7474 22.0366C78.2298 21.939 77.7806 21.7925 77.3997 21.5972ZM91.9279 21.729C91.4054 22.0317 90.651 22.1831 89.6647 22.1831C88.5124 22.1831 87.5797 21.834 86.8669 21.1357C86.154 20.4375 85.7975 19.5366 85.7975 18.4331C85.7975 17.1587 86.1784 16.1553 86.9401 15.4229C87.7067 14.6855 88.7296 14.3169 90.0089 14.3169C90.8927 14.3169 91.5324 14.4341 91.9279 14.6685V16.6313C91.4445 16.27 90.9049 16.0894 90.3092 16.0894C89.6452 16.0894 89.1178 16.2847 88.7272 16.6753C88.3415 17.061 88.1486 17.5957 88.1486 18.2793C88.1486 18.9434 88.3341 19.4658 88.7052 19.8467C89.0763 20.2227 89.5866 20.4106 90.236 20.4106C90.8122 20.4106 91.3761 20.23 91.9279 19.8687V21.729ZM98.5239 16.5874C98.2456 16.436 97.9209 16.3604 97.5498 16.3604C97.0469 16.3604 96.6538 16.5459 96.3706 16.917C96.0874 17.2832 95.9458 17.7837 95.9458 18.4185V22H93.6313V14.5H95.9458V15.8916H95.9751C96.3413 14.876 97.0005 14.3682 97.9526 14.3682C98.1968 14.3682 98.3872 14.3975 98.5239 14.4561V16.5874ZM101.018 13.3135C100.628 13.3135 100.308 13.1987 100.059 12.9692C99.8099 12.7349 99.6853 12.4492 99.6853 12.1123C99.6853 11.7656 99.8099 11.4824 100.059 11.2627C100.308 11.043 100.628 10.9331 101.018 10.9331C101.414 10.9331 101.734 11.043 101.978 11.2627C102.227 11.4824 102.351 11.7656 102.351 12.1123C102.351 12.4639 102.227 12.752 101.978 12.9766C101.734 13.2012 101.414 13.3135 101.018 13.3135ZM102.161 22H99.8465V14.5H102.161V22ZM106.633 21.1284H106.604V25.4497H104.289V14.5H106.604V15.6279H106.633C107.204 14.7539 108.007 14.3169 109.043 14.3169C110.014 14.3169 110.764 14.6514 111.291 15.3203C111.823 15.9844 112.089 16.8901 112.089 18.0376C112.089 19.2876 111.779 20.291 111.159 21.0479C110.544 21.8047 109.724 22.1831 108.698 22.1831C107.795 22.1831 107.107 21.8315 106.633 21.1284ZM106.567 18.0522V18.6528C106.567 19.1704 106.704 19.5928 106.977 19.9199C107.251 20.2471 107.609 20.4106 108.054 20.4106C108.581 20.4106 108.989 20.208 109.277 19.8027C109.57 19.3926 109.716 18.814 109.716 18.0669C109.716 16.7485 109.204 16.0894 108.178 16.0894C107.705 16.0894 107.317 16.27 107.014 16.6313C106.716 16.9878 106.567 17.4614 106.567 18.0522ZM118.305 21.9121C117.963 22.0928 117.448 22.1831 116.759 22.1831C115.128 22.1831 114.313 21.3359 114.313 19.6416V16.2065H113.097V14.5H114.313V12.8813L116.62 12.2222V14.5H118.305V16.2065H116.62V19.2388C116.62 20.02 116.93 20.4106 117.55 20.4106C117.794 20.4106 118.046 20.3398 118.305 20.1982V21.9121Z" fill="white"/>
<path d="M125 0H5C2.23858 0 0 2.23858 0 5V27C0 29.7614 2.23858 32 5 32H125C127.761 32 130 29.7614 130 27V5C130 2.23858 127.761 0 125 0Z" fill="url(#paint0_linear)"/>
<defs>
<linearGradient id="paint0_linear" x1="0" y1="0" x2="0" y2="32" gradientUnits="userSpaceOnUse">
<stop stop-color="#BBBBBB" stop-opacity="0.1"/>
<stop offset="1" stop-opacity="0.1"/>
</linearGradient>
</defs>
</svg>
